<svg width="350" height="107" viewBox="0 0 350 107" fill="none" xmlns="http://www.w3.org/2000/svg">
<g clip-path="url(#clip0_8163_66126)">
<path d="M62.7 49.8V87.8H53.4V49.9C53.4 35.4 44.9 27.7 31.3 27.8C18.2 28 9.2 38.1 9.2 51.1V87.9H0V20.3H8.8L9 31.7C14.6 23.1 23.4 19.2 32.5 19.2C50.1 19.2 62.7 29.6 62.7 49.8ZM101.2 89C81.1 89 66.2 75.5 66.1 53.9C66.1 33.6 80.6 19 100.7 19H100.8C120.9 19 137 31.2 134.5 57.8L75.7 57.9C76.9 72 87.9 80.3 101.3 80.3C109.5 80.3 119.4 77 124.1 71L130.3 76.5C123.5 84.8 111.9 89 101.2 89ZM75.6 50.1L125.8 50C125.5 35.2 114.4 27.2 100.9 27.2C87.3 27.2 77.4 35.4 75.6 50.1ZM216.8 80.2C207.6 80.2 205.3 74.6 205.3 66.1V27.9H227.2V20.1H205.3V0H196.1V20.1H188H176.6L158.3 46.7V46.6L139.8 20.1H128.9V20.5L152.6 53L127.2 87.8H138.1L158.8 60.1L178.6 87.8H189.5V87.5L164 53L182.2 28H196V66.2C196 80.3 201.9 88.8 216.4 88.6C220.8 88.6 225 87.4 229.4 85.3L226.5 77.6C223.4 79.1 220 80.2 216.8 80.2ZM289.1 39.4C289.2 39.7 289.4 39.9 289.5 40.1C290.6 41.9 291.5 43.4 292.5 44.6C296.3 49.5 299.4 49.5 307.1 49.5H349.1C348.4 46.8 346.5 44 343.6 42.3L335.9 37.7L311 22.8L309.6 22L289.5 10L276.1 2L275.6 1.7C273.7 0.6 271.7 0 269.7 0C268.8 0 267.8 0.1 266.9 0.4C266.9 0.4 267.4 1.3 268.2 2.7C272.5 9.9 285.1 32.2 289.1 39.4ZM293.7 59.3C292.7 60.4 291.7 61.8 290.6 63.8C290.4 64.1 290.2 64.5 290 64.9C285.6 72.7 271.3 97.9 267.8 104.1C267.3 105 267 105.5 267 105.5C269.8 106.2 272.8 105.9 275.6 104.2L277.1 103.3L296.4 91.8L309.6 83.9L314.2 81.2L338.5 66.7L343.6 63.6C346.5 61.9 348.3 59.3 349 56.4H303.1C299 56.2 296.4 56.5 293.7 59.3ZM284.6 61.1C287.1 56.9 289 51.9 284 43.8C283.9 43.7 283.9 43.6 283.8 43.5C279.6 36.5 267.3 14.5 262.9 6.6C261.9 4.8 261.3 3.7 261.3 3.7C261 4.1 260.6 4.5 260.3 5C258.8 7.3 258 9.5 258 12.3V93.6C258 97.1 259.3 100 261.4 102.2C261.4 102.2 261.9 101.4 262.7 100C267.2 92.1 282.2 65.4 284.6 61.3C284.6 61.2 284.6 61.1 284.6 61.1ZM68.5 97.2H68.3V97.4L66.8 106L66.7 106.3H67H68.4H68.6V106.1L70.1 97.5L70.2 97.2H69.9H68.5ZM41.5 97.2H41.3V97.4L40.7 100.9H36.7L37.3 97.5L37.4 97.2H37H35.6H35.4V97.4L33.9 106L33.8 106.3H34.1H35.5H35.7V106.1L36.3 102.8H40.3L39.7 106L39.6 106.3H40H41.4H41.6V106.1L43.1 97.5L43.2 97.2H42.9H41.5ZM6.8 97C5.1 97 3.1 97.7 2.9 99.8C2.8 101.3 3.9 102.2 6.1 102.5C7.4 102.7 7.8 102.9 7.8 103.5C7.8 103.8 7.7 104 7.5 104.2C7.2 104.5 6.5 104.8 5.7 104.8C4.7 104.8 3.9 104.4 3.4 103.7L3.2 103.4L3 103.5L2 104.4L1.8 104.6L1.9 104.8C2.5 105.9 3.9 106.6 5.6 106.6C7.1 106.6 8.2 106.2 9 105.5C9.5 105 9.8 104.3 9.8 103.4C9.8 101.5 8 101 6.5 100.8C5.4 100.6 4.9 100.4 4.9 100C4.9 99.7 5.1 99.4 5.4 99.2C5.7 99 6.2 98.9 6.8 98.9C7.6 98.9 8.4 99.3 8.6 99.7L8.7 100L9 99.8L10 99L10.2 98.9L10.1 98.7C9.6 97.6 8.4 97 6.8 97ZM192.6 97H192.4V97.2L191.5 102.8L188.1 97.1L188 97H187.8H186.7H186.5V97.2L185 105.8L184.9 106.1H185.2H186.6H186.8V105.9L187.7 100.3L191.1 106L191.2 106.1H191.4H192.5H192.7V105.9L194.2 97.3L194.3 97H194H192.6ZM159.6 97.1H159.4V97.3L157.9 105.9L157.8 106.2H158.1H159.5H159.7V106L161.2 97.4L161.3 97.1H161H159.6ZM134.5 99.9C134.5 101.7 133 103.7 130.6 103.7H128.2L127.8 106.1V106.3H127.6H126.2H125.9L126 106L127.5 97.4V97.2H127.7H129.9H131.7C133.8 97.1 134.5 98.6 134.5 99.9ZM132.6 100C132.6 99.7 132.5 98.9 131.4 98.9H129L128.5 101.9H130.8C131.9 101.8 132.6 100.8 132.6 100ZM223.7 96.8C222 96.8 220.5 97.4 219.5 98.5C218.5 99.5 218 100.9 218 102.4C218 104.3 219.1 106.3 222.1 106.3C223.5 106.3 224.8 105.8 225.9 104.7L226 104.6V104.5L226.6 101L226.7 100.7H226.4H222.7H222.5V100.9L222.3 102.1L222.2 102.4H222.5H224.6L224.4 103.7C223.8 104.1 223.1 104.3 222.4 104.3C220.4 104.3 220 103.1 220 102C220 100.2 221.3 98.4 223.5 98.4C224.3 98.4 225 98.7 225.4 99.2L225.6 99.4L225.8 99.2L226.8 98.3L227 98.1L226.8 97.9C226.1 97.3 225 96.8 223.7 96.8ZM102.5 99.9C102.5 101.7 101 103.7 98.6 103.7H96.2L95.8 106.1V106.3H95.6H94.2H93.9L94 106L95.5 97.4V97.2H95.7H97.7H99.7C101.7 97.1 102.5 98.6 102.5 99.9ZM100.5 100C100.5 99.8 100.5 99.5 100.2 99.2C100 99 99.7 98.9 99.3 98.9H96.9L96.4 101.9H98.7C99.9 101.9 100.5 100.8 100.5 100Z" fill="url(#paint0_linear_8163_66126)"/>
</g>
<defs>
<linearGradient id="paint0_linear_8163_66126" x1="0" y1="53.2893" x2="349.108" y2="53.2893" gradientUnits="userSpaceOnUse">
<stop stop-color="#4B2380"/>
<stop offset="0.1395" stop-color="#502A82"/>
<stop offset="0.3384" stop-color="#593C88"/>
<stop offset="0.5728" stop-color="#3F5B91"/>
<stop offset="0.8321" stop-color="#1B869E"/>
<stop offset="1" stop-color="#00A5A8"/>
</linearGradient>
<clipPath id="clip0_8163_66126">
<rect width="349.1" height="106.6" fill="white"/>
</clipPath>
</defs>
</svg>
